<?xml version="1.0" encoding="UTF-8"?>
<svg width="1024" height="1024" viewBox="0 0 1024 1024" xmlns="http://www.w3.org/2000/svg">
  <!-- Gradient background -->
  <defs>
    <radialGradient id="bgGradient" cx="50%" cy="50%" r="50%">
      <stop offset="0%" style="stop-color:#1a1a2e;stop-opacity:1" />
      <stop offset="100%" style="stop-color:#0f0f1e;stop-opacity:1" />
    </radialGradient>
    <linearGradient id="lensGradient" x1="0%" y1="0%" x2="100%" y2="100%">
      <stop offset="0%" style="stop-color:#f5a623;stop-opacity:1" />
      <stop offset="100%" style="stop-color:#d68a1e;stop-opacity:1" />
    </linearGradient>
  </defs>

  <!-- Background -->
  <rect width="1024" height="1024" fill="url(#bgGradient)"/>

  <!-- Camera body -->
  <rect x="150" y="250" width="724" height="524" rx="60" fill="#1a1a2e" stroke="#f5a623" stroke-width="8"/>

  <!-- Lens outer ring -->
  <circle cx="512" cy="512" r="320" fill="none" stroke="#f5a623" stroke-width="12"/>

  <!-- Aperture blades -->
  <g opacity="0.8">
    <path d="M 512 192 L 640 340 L 580 512 Z" fill="#f5a623" opacity="0.6"/>
    <path d="M 512 192 L 384 340 L 444 512 Z" fill="#f5a623" opacity="0.6"/>
    <path d="M 832 512 L 684 384 L 684 444 Z" fill="#f5a623" opacity="0.6"/>
    <path d="M 832 512 L 684 640 L 684 580 Z" fill="#f5a623" opacity="0.6"/>
    <path d="M 512 832 L 384 684 L 444 512 Z" fill="#f5a623" opacity="0.6"/>
    <path d="M 512 832 L 640 684 L 580 512 Z" fill="#f5a623" opacity="0.6"/>
    <path d="M 192 512 L 340 384 L 340 444 Z" fill="#f5a623" opacity="0.6"/>
    <path d="M 192 512 L 340 640 L 340 580 Z" fill="#f5a623" opacity="0.6"/>
  </g>

  <!-- Lens glass center -->
  <circle cx="512" cy="512" r="240" fill="url(#lensGradient)" opacity="0.3"/>
  <circle cx="512" cy="512" r="240" fill="none" stroke="#f5a623" stroke-width="4"/>

  <!-- Inner lens detail -->
  <circle cx="512" cy="512" r="180" fill="none" stroke="#f5a623" stroke-width="3" opacity="0.5"/>
  <circle cx="512" cy="512" r="120" fill="none" stroke="#f5a623" stroke-width="2" opacity="0.4"/>

  <!-- Focus ring lines -->
  <line x1="330" y1="512" x2="380" y2="512" stroke="#f5a623" stroke-width="2" opacity="0.6"/>
  <line x1="644" y1="512" x2="694" y2="512" stroke="#f5a623" stroke-width="2" opacity="0.6"/>
  <line x1="512" y1="330" x2="512" y2="380" stroke="#f5a623" stroke-width="2" opacity="0.6"/>
  <line x1="512" y1="644" x2="512" y2="694" stroke="#f5a623" stroke-width="2" opacity="0.6"/>

  <!-- Camera button (top) -->
  <circle cx="280" cy="320" r="24" fill="#f5a623" stroke="#d68a1e" stroke-width="2"/>
  <circle cx="280" cy="320" r="16" fill="#00d9ff" opacity="0.7"/>

  <!-- Shutter text -->
  <text x="512" y="720" font-family="Arial, sans-serif" font-size="48" font-weight="bold"
        fill="#f5a623" text-anchor="middle" opacity="0.8">FRAMEUP</text>
</svg>